HIERARCHY
ROOT mixamorig:Hips
{
	OFFSET 0.000000 201.639420 0.000000
	CHANNELS 6 Xposition Yposition Zposition Xrotation Yrotation Zrotation
	JOINT mixamorig:Spine
	{
		OFFSET 0.006200 19.524994 -2.481800
		CHANNELS 3 Xrotation Yrotation Zrotation
		JOINT mixamorig:Spine1
		{
			OFFSET -0.000900 22.835007 -2.825400
			CHANNELS 3 Xrotation Yrotation Zrotation
			JOINT mixamorig:Spine2
			{
				OFFSET -0.020600 26.552490 -3.193300
				CHANNELS 3 Xrotation Yrotation Zrotation
				JOINT mixamorig:Neck
				{
					OFFSET -0.060000 30.701813 1.352200
					CHANNELS 3 Xrotation Yrotation Zrotation
					JOINT mixamorig:Head
					{
						OFFSET -0.087200 22.547607 3.670900
						CHANNELS 3 Xrotation Yrotation Zrotation
						JOINT mixamorig:HeadTop_End
						{
							OFFSET -0.830600 40.355194 7.893500
							CHANNELS 3 Xrotation Yrotation Zrotation
							End Site
							{
								OFFSET 0.000000 30.592346 0.000000
							}
						}
						JOINT mixamorig:RightEye
						{
							OFFSET -6.302100 18.118591 16.197100
							CHANNELS 3 Xrotation Yrotation Zrotation
							End Site
							{
								OFFSET 0.000000 30.592346 0.000000
							}
						}
						JOINT mixamorig:LeftEye
						{
							OFFSET 6.741500 18.382690 16.401899
							CHANNELS 3 Xrotation Yrotation Zrotation
							End Site
							{
								OFFSET 0.000000 30.592346 0.000000
							}
						}
					}
				}
				JOINT mixamorig:LeftShoulder
				{
					OFFSET 11.924900 18.230499 1.425400
					CHANNELS 3 Xrotation Yrotation Zrotation
					JOINT mixamorig:LeftArm
					{
						OFFSET 25.435989 -0.697632 -5.229300
						CHANNELS 3 Xrotation Yrotation Zrotation
						JOINT mixamorig:LeftForeArm
						{
							OFFSET 54.684776 0.000000 0.000000
							CHANNELS 3 Xrotation Yrotation Zrotation
							JOINT mixamorig:LeftHand
							{
								OFFSET 55.098175 0.000000 0.000000
								CHANNELS 3 Xrotation Yrotation Zrotation
								JOINT mixamorig:LeftHandMiddle1
								{
									OFFSET 23.369751 0.000000 0.000000
									CHANNELS 3 Xrotation Yrotation Zrotation
									JOINT mixamorig:LeftHandMiddle2
									{
										OFFSET 6.378677 0.000000 0.000000
										CHANNELS 3 Xrotation Yrotation Zrotation
										JOINT mixamorig:LeftHandMiddle3
										{
											OFFSET 6.148331 0.000000 0.000000
											CHANNELS 3 Xrotation Yrotation Zrotation
											JOINT mixamorig:LeftHandMiddle4
											{
												OFFSET 6.582504 0.000000 0.000000
												CHANNELS 3 Xrotation Yrotation Zrotation
												End Site
												{
													OFFSET -1.168900 6.395691 1.028606
												}
											}
										}
									}
								}
								JOINT mixamorig:LeftHandThumb1
								{
									OFFSET 7.235672 -3.848206 5.434273
									CHANNELS 3 Xrotation Yrotation Zrotation
									JOINT mixamorig:LeftHandThumb2
									{
										OFFSET 6.568451 -3.792297 3.792300
										CHANNELS 3 Xrotation Yrotation Zrotation
										JOINT mixamorig:LeftHandThumb3
										{
											OFFSET 6.063080 -3.500519 3.500518
											CHANNELS 3 Xrotation Yrotation Zrotation
											JOINT mixamorig:LeftHandThumb4
											{
												OFFSET 4.793182 -2.767334 2.767349
												CHANNELS 3 Xrotation Yrotation Zrotation
												End Site
												{
													OFFSET 0.101639 6.054260 1.275483
												}
											}
										}
									}
								}
								JOINT mixamorig:LeftHandIndex1
								{
									OFFSET 23.101074 -0.309540 4.992809
									CHANNELS 3 Xrotation Yrotation Zrotation
									JOINT mixamorig:LeftHandIndex2
									{
										OFFSET 6.226883 0.000000 0.000000
										CHANNELS 3 Xrotation Yrotation Zrotation
										JOINT mixamorig:LeftHandIndex3
										{
											OFFSET 6.094330 0.000000 0.000000
											CHANNELS 3 Xrotation Yrotation Zrotation
											JOINT mixamorig:LeftHandIndex4
											{
												OFFSET 5.482605 0.000000 0.000000
												CHANNELS 3 Xrotation Yrotation Zrotation
												End Site
												{
													OFFSET -1.427902 5.233032 0.797164
												}
											}
										}
									}
								}
								JOINT mixamorig:LeftHandRing1
								{
									OFFSET 22.299240 0.021149 -3.964172
									CHANNELS 3 Xrotation Yrotation Zrotation
									JOINT mixamorig:LeftHandRing2
									{
										OFFSET 6.321869 0.000000 0.000000
										CHANNELS 3 Xrotation Yrotation Zrotation
										JOINT mixamorig:LeftHandRing3
										{
											OFFSET 5.899796 0.000000 0.000000
											CHANNELS 3 Xrotation Yrotation Zrotation
											JOINT mixamorig:LeftHandRing4
											{
												OFFSET 6.517899 0.000000 0.000000
												CHANNELS 3 Xrotation Yrotation Zrotation
												End Site
												{
													OFFSET -1.637299 6.232208 0.980890
												}
											}
										}
									}
								}
								JOINT mixamorig:LeftHandPinky1
								{
									OFFSET 20.463791 -0.302338 -8.562233
									CHANNELS 3 Xrotation Yrotation Zrotation
									JOINT mixamorig:LeftHandPinky2
									{
										OFFSET 6.908646 0.000000 0.000000
										CHANNELS 3 Xrotation Yrotation Zrotation
										JOINT mixamorig:LeftHandPinky3
										{
											OFFSET 4.622849 0.000000 0.000000
											CHANNELS 3 Xrotation Yrotation Zrotation
											JOINT mixamorig:LeftHandPinky4
											{
												OFFSET 5.216080 0.000000 0.000000
												CHANNELS 3 Xrotation Yrotation Zrotation
												End Site
												{
													OFFSET -0.606308 5.116241 0.814926
												}
											}
										}
									}
								}
							}
						}
					}
				}
				JOINT mixamorig:RightShoulder
				{
					OFFSET -12.001300 18.284088 1.348900
					CHANNELS 3 Xrotation Yrotation Zrotation
					JOINT mixamorig:RightArm
					{
						OFFSET -25.308500 -0.751312 -5.164599
						CHANNELS 3 Xrotation Yrotation Zrotation
						JOINT mixamorig:RightForeArm
						{
							OFFSET -54.684429 0.000000 0.000000
							CHANNELS 3 Xrotation Yrotation Zrotation
							JOINT mixamorig:RightHand
							{
								OFFSET -55.150291 0.000000 0.000000
								CHANNELS 3 Xrotation Yrotation Zrotation
								JOINT mixamorig:RightHandMiddle1
								{
									OFFSET -23.317566 0.000000 0.000000
									CHANNELS 3 Xrotation Yrotation Zrotation
									JOINT mixamorig:RightHandMiddle2
									{
										OFFSET -6.378403 0.000000 0.000000
										CHANNELS 3 Xrotation Yrotation Zrotation
										JOINT mixamorig:RightHandMiddle3
										{
											OFFSET -6.148193 0.000000 0.000000
											CHANNELS 3 Xrotation Yrotation Zrotation
											JOINT mixamorig:RightHandMiddle4
											{
												OFFSET -6.583389 0.000000 0.000000
												CHANNELS 3 Xrotation Yrotation Zrotation
												End Site
												{
													OFFSET 1.171692 6.395905 1.029786
												}
											}
										}
									}
								}
								JOINT mixamorig:RightHandThumb1
								{
									OFFSET -7.190521 -3.860474 5.435846
									CHANNELS 3 Xrotation Yrotation Zrotation
									JOINT mixamorig:RightHandThumb2
									{
										OFFSET -6.567429 -3.791718 3.791708
										CHANNELS 3 Xrotation Yrotation Zrotation
										JOINT mixamorig:RightHandThumb3
										{
											OFFSET -6.062469 -3.500153 3.500166
											CHANNELS 3 Xrotation Yrotation Zrotation
											JOINT mixamorig:RightHandThumb4
											{
												OFFSET -4.792618 -2.767029 2.767022
												CHANNELS 3 Xrotation Yrotation Zrotation
												End Site
												{
													OFFSET -0.100327 6.053253 1.276754
												}
											}
										}
									}
								}
								JOINT mixamorig:RightHandIndex1
								{
									OFFSET -23.048981 -0.310791 4.992554
									CHANNELS 3 Xrotation Yrotation Zrotation
									JOINT mixamorig:RightHandIndex2
									{
										OFFSET -6.227539 0.000000 0.000000
										CHANNELS 3 Xrotation Yrotation Zrotation
										JOINT mixamorig:RightHandIndex3
										{
											OFFSET -6.095047 0.000000 0.000000
											CHANNELS 3 Xrotation Yrotation Zrotation
											JOINT mixamorig:RightHandIndex4
											{
												OFFSET -5.484772 0.000000 0.000000
												CHANNELS 3 Xrotation Yrotation Zrotation
												End Site
												{
													OFFSET 1.420593 5.237305 0.797056
												}
											}
										}
									}
								}
								JOINT mixamorig:RightHandRing1
								{
									OFFSET -22.246323 0.020569 -3.963762
									CHANNELS 3 Xrotation Yrotation Zrotation
									JOINT mixamorig:RightHandRing2
									{
										OFFSET -6.322128 0.000000 0.000000
										CHANNELS 3 Xrotation Yrotation Zrotation
										JOINT mixamorig:RightHandRing3
										{
											OFFSET -5.900024 0.000000 0.000000
											CHANNELS 3 Xrotation Yrotation Zrotation
											JOINT mixamorig:RightHandRing4
											{
												OFFSET -6.518356 0.000000 0.000000
												CHANNELS 3 Xrotation Yrotation Zrotation
												End Site
												{
													OFFSET 1.636398 6.232697 0.982186
												}
											}
										}
									}
								}
								JOINT mixamorig:RightHandPinky1
								{
									OFFSET -20.411011 -0.303314 -8.561701
									CHANNELS 3 Xrotation Yrotation Zrotation
									JOINT mixamorig:RightHandPinky2
									{
										OFFSET -6.907349 0.000000 0.000000
										CHANNELS 3 Xrotation Yrotation Zrotation
										JOINT mixamorig:RightHandPinky3
										{
											OFFSET -4.623840 0.000000 0.000000
											CHANNELS 3 Xrotation Yrotation Zrotation
											JOINT mixamorig:RightHandPinky4
											{
												OFFSET -5.218353 0.000000 0.000000
												CHANNELS 3 Xrotation Yrotation Zrotation
												End Site
												{
													OFFSET 0.602097 5.118835 0.816273
												}
											}
										}
									}
								}
							}
						}
					}
				}
			}
		}
	}
	JOINT mixamorig:LeftUpLeg
	{
		OFFSET 18.168400 -13.561905 -0.039000
		CHANNELS 3 Xrotation Yrotation Zrotation
		JOINT mixamorig:LeftLeg
		{
			OFFSET 0.577358 -80.825211 -3.695000
			CHANNELS 3 Xrotation Yrotation Zrotation
			JOINT mixamorig:LeftFoot
			{
				OFFSET -0.577356 -83.370262 -6.520700
				CHANNELS 3 Xrotation Yrotation Zrotation
				JOINT mixamorig:LeftToeBase
				{
					OFFSET 0.750401 -20.798306 25.135401
					CHANNELS 3 Xrotation Yrotation Zrotation
					JOINT mixamorig:LeftToe_End
					{
						OFFSET -0.000500 0.001200 19.917799
						CHANNELS 3 Xrotation Yrotation Zrotation
						End Site
						{
							OFFSET 0.000000 19.917805 0.000000
						}
					}
				}
			}
		}
	}
	JOINT mixamorig:RightUpLeg
	{
		OFFSET -18.162500 -13.585098 -0.041000
		CHANNELS 3 Xrotation Yrotation Zrotation
		JOINT mixamorig:RightLeg
		{
			OFFSET -0.595024 -80.945297 -3.631900
			CHANNELS 3 Xrotation Yrotation Zrotation
			JOINT mixamorig:RightFoot
			{
				OFFSET 0.595024 -83.218193 -6.561200
				CHANNELS 3 Xrotation Yrotation Zrotation
				JOINT mixamorig:RightToeBase
				{
					OFFSET -0.753601 -20.807106 25.115000
					CHANNELS 3 Xrotation Yrotation Zrotation
					JOINT mixamorig:RightToe_End
					{
						OFFSET 0.000299 0.001700 19.918200
						CHANNELS 3 Xrotation Yrotation Zrotation
						End Site
						{
							OFFSET 0.000000 19.918203 0.000000
						}
					}
				}
			}
		}
	}
}
MOTION
Frames: 5
Frame Time: 0.033333
2.341372 175.434830 -11.646614 11.999288 -22.667883 3.191077 11.072123 -2.121441 -1.119445 8.593722 -1.539352 -0.713642 8.628460 -1.328806 -0.739215 -3.461012 1.282440 -0.118534 -38.905359 6.043425 1.264994 -0.000000 0.000000 0.000000 -0.000000 0.000000 0.000000 -0.000000 0.000000 0.000000 1.077906 -1.563841 -7.451776 -8.784640 -20.341314 -44.694446 0.000811 -87.427029 0.000791 39.113556 -6.332452 22.363375 0.183420 1.581771 -13.227736 0.184298 1.585540 -13.259711 0.046112 0.797153 -6.620587 0.000002 -0.000004 0.000002 -1.540033 3.690169 6.142350 3.939032 7.948709 0.746803 -0.579460 1.575009 2.538716 0.000001 0.000000 -0.000000 0.183863 1.583654 -13.243732 0.183850 1.583657 -13.243718 0.046110 0.797146 -6.620589 -0.000000 -0.000001 -0.000001 0.183864 1.583661 -13.243719 0.183850 1.583644 -13.243723 0.046114 0.797151 -6.620595 -0.000002 -0.000001 0.000002 1.098629 5.533842 -12.790115 0.179997 -2.472278 -13.740972 0.046097 0.797151 -6.620583 -0.000001 0.000006 0.000002 0.940478 -0.581828 7.659326 -16.561964 29.966495 71.892549 -0.001289 95.643392 0.001400 38.487337 1.812682 -7.499925 0.364537 -2.225936 18.599271 0.364532 -2.225922 18.599280 0.091703 -1.127772 9.296098 0.000000 -0.000004 0.000009 -1.849246 -3.581791 -6.586132 4.637202 -8.634135 -0.225407 -1.273759 0.137322 -2.094868 -0.000003 0.000000 0.000001 0.364536 -2.225943 18.599276 0.364543 -2.225903 18.599281 0.091700 -1.127767 9.296104 0.000002 -0.000000 0.000003 0.364536 -2.225942 18.599276 0.364547 -2.225917 18.599285 0.091695 -1.127782 9.296097 0.000002 0.000001 -0.000002 0.364539 -2.225930 18.599271 0.364543 -2.225919 18.599283 0.091699 -1.127787 9.296096 0.000002 0.000001 -0.000003 -50.060584 3.327120 28.607955 46.423580 -0.595122 0.505382 -4.719728 1.635918 -18.973130 -4.031336 -0.000000 0.000002 0.000000 -0.000000 -0.000000 -48.329428 -2.856732 -14.633214 56.425757 1.986115 -4.277703 -18.391469 -2.091768 14.763085 -4.353480 0.000005 0.000001 -0.000001 -0.000000 -0.000000 
2.595437 176.054077 -11.176949 11.522660 -22.153681 2.859379 11.019436 -1.915569 -0.978418 8.531755 -1.392537 -0.632396 8.562401 -1.185201 -0.657295 -3.440696 1.116519 -0.258564 -37.466569 5.315908 0.698125 0.000000 -0.000001 -0.000000 0.000000 -0.000001 -0.000000 0.000000 -0.000001 -0.000000 1.096658 -1.539539 -7.684914 -6.783541 -22.032679 -45.067678 -0.000674 -86.865205 -0.000659 40.106297 -5.411627 22.778910 0.183414 1.581780 -13.227730 0.184297 1.585535 -13.259707 0.046105 0.797153 -6.620586 0.000001 0.000003 -0.000003 -1.540040 3.690176 6.142351 3.939031 7.948700 0.746798 -0.579465 1.575011 2.538717 0.000001 0.000002 0.000000 0.183854 1.583671 -13.243722 0.183877 1.583667 -13.243717 0.046110 0.797143 -6.620587 -0.000002 0.000001 0.000001 0.183854 1.583665 -13.243723 0.183870 1.583667 -13.243721 0.046110 0.797152 -6.620581 0.000000 -0.000003 0.000000 1.098629 5.533856 -12.790118 0.180012 -2.472271 -13.740971 0.046102 0.797148 -6.620588 0.000002 -0.000004 0.000003 0.897025 -0.927230 8.065680 -14.855438 29.247153 72.496345 0.001278 94.978350 -0.001212 36.881529 1.946014 -7.556598 0.364552 -2.225932 18.599336 0.364540 -2.225941 18.599333 0.091704 -1.127781 9.296129 -0.000001 -0.000002 0.000001 -1.849247 -3.581790 -6.586132 4.637201 -8.634139 -0.225408 -1.273763 0.137321 -2.094868 0.000004 -0.000000 0.000001 0.364544 -2.225925 18.599344 0.364547 -2.225926 18.599334 0.091693 -1.127798 9.296124 -0.000000 -0.000001 0.000001 0.364545 -2.225938 18.599343 0.364548 -2.225939 18.599322 0.091693 -1.127774 9.296142 -0.000001 -0.000002 -0.000000 0.364544 -2.225922 18.599344 0.364543 -2.225938 18.599331 0.091694 -1.127780 9.296129 0.000000 -0.000003 0.000001 -49.567099 3.669920 28.240281 45.957696 -0.605137 0.684562 -4.562497 1.583388 -18.668037 -4.110007 -0.000001 0.000001 -0.000000 -0.000000 -0.000000 -47.219816 -3.276862 -14.778076 55.487330 1.213404 -4.394336 -17.980640 -2.294712 15.185782 -4.391772 -0.000010 -0.000004 -0.000000 -0.000002 -0.000000 
3.014467 176.686996 -10.613590 11.063011 -21.669357 2.533835 10.958762 -1.806842 -0.746528 8.464606 -1.323276 -0.488208 8.492916 -1.117822 -0.511455 -3.480471 1.024157 -0.508156 -35.881572 4.804548 0.247407 -0.000000 0.000000 -0.000000 -0.000000 0.000000 -0.000000 -0.000000 0.000000 -0.000000 1.099924 -1.408246 -7.977054 -4.665561 -23.378918 -45.354983 -0.000331 -86.609237 -0.000327 41.563641 -4.749675 22.588397 0.183415 1.581775 -13.227723 0.184309 1.585524 -13.259710 0.046104 0.797136 -6.620592 0.000001 -0.000002 0.000006 -1.540037 3.690174 6.142349 3.939029 7.948704 0.746800 -0.579460 1.575009 2.538719 0.000000 -0.000002 -0.000002 0.183859 1.583667 -13.243715 0.183864 1.583642 -13.243723 0.046101 0.797146 -6.620591 -0.000000 0.000002 -0.000002 0.183861 1.583661 -13.243719 0.183857 1.583647 -13.243716 0.046106 0.797141 -6.620594 -0.000001 0.000004 -0.000000 1.098629 5.533858 -12.790106 0.180013 -2.472292 -13.740960 0.046094 0.797150 -6.620589 -0.000001 0.000002 -0.000004 0.897259 -1.044453 8.304670 -13.106092 28.529646 72.871896 -0.001144 94.311225 0.001144 35.770537 1.997850 -7.567250 0.364534 -2.225910 18.599078 0.364547 -2.225908 18.599046 0.091683 -1.127766 9.295994 -0.000001 0.000002 -0.000005 -1.849245 -3.581790 -6.586132 4.637204 -8.634143 -0.225407 -1.273768 0.137321 -2.094870 -0.000002 -0.000002 0.000003 0.364538 -2.225914 18.599064 0.364537 -2.225892 18.599064 0.091681 -1.127780 9.295990 0.000002 -0.000000 0.000002 0.364530 -2.225922 18.599066 0.364535 -2.225907 18.599064 0.091695 -1.127769 9.295999 -0.000001 0.000001 0.000002 0.364532 -2.225912 18.599068 0.364538 -2.225888 18.599073 0.091685 -1.127781 9.295983 0.000002 0.000002 0.000001 -49.123264 4.080851 27.823503 45.590502 -0.637315 0.944137 -4.497597 1.542794 -18.335680 -4.182503 -0.000003 -0.000004 0.000000 0.000000 0.000000 -46.123079 -3.872824 -15.068809 54.440569 0.645199 -4.521892 -17.491694 -2.473609 15.589355 -4.433790 0.000005 0.000004 -0.000000 0.000000 -0.000000 
3.646493 177.305557 -9.932911 10.549389 -21.149602 2.160808 10.915131 -1.631511 -0.612357 8.412029 -1.186129 -0.379264 8.436956 -0.977673 -0.402978 -3.430628 0.827747 -0.260699 -34.636098 4.239048 -0.273444 -0.000000 -0.000001 0.000000 -0.000000 -0.000001 0.000000 -0.000000 -0.000001 0.000000 1.121808 -1.619948 -7.617092 -2.456959 -23.650659 -46.263853 -0.000414 -87.519312 -0.000446 43.364471 -4.612759 21.891796 0.183416 1.581781 -13.227725 0.184287 1.585543 -13.259731 0.046113 0.797154 -6.620591 0.000003 0.000001 0.000002 -1.540037 3.690175 6.142352 3.939031 7.948707 0.746802 -0.579462 1.575011 2.538722 0.000000 -0.000002 -0.000001 0.183854 1.583657 -13.243732 0.183860 1.583660 -13.243726 0.046111 0.797143 -6.620591 -0.000002 0.000001 0.000002 0.183855 1.583668 -13.243728 0.183863 1.583657 -13.243732 0.046111 0.797150 -6.620588 0.000000 -0.000002 0.000001 1.098640 5.533853 -12.790114 0.179996 -2.472285 -13.740975 0.046114 0.797150 -6.620591 -0.000002 -0.000002 0.000002 0.761377 -1.944884 8.921843 -11.184678 27.462884 73.463643 0.000932 94.100227 -0.001003 34.237587 2.258854 -7.683516 0.364577 -2.226010 18.599913 0.364571 -2.226003 18.599905 0.091706 -1.127825 9.296411 0.000004 0.000002 -0.000003 -1.849244 -3.581788 -6.586133 4.637210 -8.634143 -0.225407 -1.273765 0.137322 -2.094867 0.000004 -0.000002 0.000003 0.364568 -2.225999 18.599913 0.364571 -2.225999 18.599910 0.091704 -1.127822 9.296410 0.000001 0.000000 0.000001 0.364570 -2.226001 18.599918 0.364571 -2.226011 18.599898 0.091708 -1.127828 9.296405 0.000000 0.000002 0.000001 0.364578 -2.225998 18.599917 0.364570 -2.226004 18.599901 0.091708 -1.127832 9.296408 -0.000002 -0.000003 0.000005 -48.728574 4.527951 27.342943 45.413122 -0.728759 1.276043 -4.568034 1.513087 -17.935747 -4.248465 -0.000001 0.000000 0.000000 0.000000 0.000000 -44.899314 -4.421471 -15.552838 53.323451 0.332153 -4.364916 -17.012627 -2.614255 15.881023 -4.468694 -0.000008 0.000003 -0.000000 -0.000001 0.000000 
4.493310 177.936234 -9.182316 10.040580 -20.506157 1.623222 10.783698 -0.999359 -0.783504 8.322617 -0.669688 -0.445892 8.335536 -0.443865 -0.478585 -2.742923 0.162727 1.820616 -33.985126 3.300893 -1.624170 0.000000 -0.000000 -0.000000 0.000000 -0.000000 -0.000000 0.000000 -0.000000 -0.000000 1.201097 -3.289489 -5.446248 -0.303471 -22.024630 -49.035393 -0.008486 -90.682461 -0.008471 45.525280 -3.793086 22.548169 0.183416 1.581767 -13.227750 0.184292 1.585526 -13.259735 0.046108 0.797162 -6.620612 0.000002 -0.000004 0.000007 -1.540034 3.690169 6.142351 3.939032 7.948704 0.746801 -0.579460 1.575006 2.538717 0.000001 0.000002 0.000001 0.183859 1.583664 -13.243737 0.183867 1.583649 -13.243740 0.046098 0.797154 -6.620607 0.000000 -0.000000 0.000000 0.183862 1.583657 -13.243739 0.183860 1.583651 -13.243732 0.046098 0.797152 -6.620606 -0.000004 -0.000002 0.000004 1.098626 5.533859 -12.790135 0.180008 -2.472283 -13.740980 0.046107 0.797150 -6.620606 -0.000001 -0.000003 0.000004 0.228187 -5.098548 11.128897 -8.680875 24.785853 75.234349 0.003967 95.452105 -0.003993 33.437710 3.130769 -8.134292 0.364472 -2.225700 18.597400 0.364476 -2.225710 18.597396 0.091665 -1.127673 9.295173 0.000002 0.000003 -0.000002 -1.849252 -3.581784 -6.586131 4.637208 -8.634139 -0.225404 -1.273763 0.137318 -2.094871 -0.000002 0.000002 0.000002 0.364465 -2.225705 18.597405 0.364478 -2.225701 18.597396 0.091664 -1.127669 9.295176 -0.000003 0.000001 0.000002 0.364467 -2.225710 18.597396 0.364476 -2.225701 18.597401 0.091668 -1.127675 9.295169 0.000001 0.000001 -0.000001 0.364470 -2.225705 18.597393 0.364479 -2.225698 18.597408 0.091665 -1.127678 9.295163 0.000002 0.000001 -0.000000 -48.580315 5.091734 26.964701 45.381249 -1.182167 1.701777 -4.720687 1.478069 -17.377929 -4.304927 0.000000 -0.000001 0.000000 -0.000000 -0.000000 -43.471863 -4.944157 -15.891419 51.961443 -0.356519 -4.250932 -16.380438 -2.774729 16.432482 -4.519292 -0.000004 -0.000002 -0.000001 -0.000004 -0.000000 
